<?xml version="1.0" encoding="iso-8859-1"?>
<!-- Uploaded to: SVG Repo, www.svgrepo.com, Generator: SVG Repo Mixer Tools -->
<!DOCTYPE svg PUBLIC "-//W3C//DTD SVG 1.1//EN" "http://www.w3.org/Graphics/SVG/1.1/DTD/svg11.dtd">
<svg height="800px" width="800px" version="1.1" id="Capa_1" xmlns="http://www.w3.org/2000/svg" xmlns:xlink="http://www.w3.org/1999/xlink" 
	 viewBox="0 0 94.519 94.519" xml:space="preserve">
<g id="XMLID_398_">
	<path id="XMLID_342_" style="fill:#E0B75A;" d="M2.075,83.726c-1.355-1.354-2.103-3.201-2.074-5.118
		c0.029-1.916,0.834-3.739,2.231-5.052l65.295-61.373c0.931-0.875,2.389-0.852,3.292,0.051l2.908,2.908
		c0.904,0.903,0.926,2.361,0.051,3.292L12.405,83.73c-1.313,1.396-3.135,2.201-5.052,2.23c-1.917,0.03-3.763-0.718-5.118-2.073
		L2.075,83.726z"/>
	<path id="XMLID_325_" style="fill:#302F2A;" d="M94.519,40.114c0,0-6.364,13.789-20.86,20.859c0,0-8.279-6.898-11.137-25.632
		c-1.426-9.351-5.018-12.268-11.962-18.533c-0.665-0.6-1.054-1.446-1.077-2.341c-0.023-0.896,0.32-1.763,0.954-2.396l2.557-2.556
		c1.192-1.193,3.097-1.281,4.395-0.205L94.519,40.114z"/>
	<g id="XMLID_344_">
		<path id="XMLID_345_" style="fill:#44433F;" d="M69.077,55.035c2.464,4.169,4.582,5.938,4.582,5.938
			c14.496-7.07,20.86-20.859,20.86-20.859l-5.775-4.887C87.377,37.873,81.187,48.752,69.077,55.035z"/>
	</g>
	<path id="XMLID_355_" style="opacity:0.41;fill:#302F2A;" d="M94.519,40.114l-5.775-4.887L71.616,20.734l2.163-2.301
		c0.875-0.931,0.853-2.389-0.051-3.292l-1.455-1.454L2.155,83.807l0.081,0.08c1.355,1.355,3.202,2.104,5.118,2.073
		c1.917-0.029,3.739-0.834,5.052-2.23l49.143-52.284c0.429,1.244,0.767,2.535,0.975,3.896c1.412,9.258,4.147,15.621,6.554,19.694
		c2.301,3.895,4.3,5.694,4.554,5.914c0.001,0.001,0.003,0.003,0.004,0.004c0.016,0.014,0.024,0.021,0.024,0.021
		C88.155,53.903,94.519,40.114,94.519,40.114z"/>
</g>
</svg>